<?xml version="1.0" encoding="utf-8"?>
<!-- Generator: Adobe Illustrator 27.0.1, SVG Export Plug-In . SVG Version: 6.00 Build 0)  -->
<svg version="1.1" id="Layer_1" xmlns="http://www.w3.org/2000/svg" xmlns:xlink="http://www.w3.org/1999/xlink" x="0px" y="0px"
	 viewBox="0 0 700 700" style="enable-background:new 0 0 700 700;" xml:space="preserve">
<style type="text/css">
	.st0{fill:url(#SVGID_1_);}
	.st1{fill:#00AEFF;}
</style>
<g>
	<linearGradient id="SVGID_1_" gradientUnits="userSpaceOnUse" x1="168.842" y1="426.0714" x2="481.8087" y2="426.0714">
		<stop  offset="0" style="stop-color:#FD00FF"/>
		<stop  offset="1" style="stop-color:#A215FF"/>
	</linearGradient>
	<path class="st0" d="M388.1,270.3c-33.8,7.4-57.8,32-76.9,59.7c-10.5-17.2-21.5-33.8-34.5-49.2c-15.4-19.1-35.1-41.8-61.5-43.7
		c-58.5-3.1-47.4,73.2-41.2,108.9c9.8,52.9,29.5,103.4,57.2,148.9c14.2,22.8,29.5,44.3,48,64c19.7,20.9,41.2,36.9,62.8,54.8
		c5.5,4.9,13.5-3.7,8-8c-1.8-1.8-3.7-3.1-5.5-4.9c6.2,1.8,14.2,0.6,18.5-6.8c30.2-43.7,60.3-87.4,83.7-134.1
		c20.3-40,44.9-89.8,31.4-136C466.8,283.2,428.7,261.7,388.1,270.3L388.1,270.3z M445.9,373.7c-17.8,74.5-68.3,141.5-110.8,203.7
		c-3.1,4.3-3.1,8-2.5,11.7c-24-24.6-44.3-54.2-62.2-82.5c-23.4-36.3-40.6-75.7-52.9-117.5c-5.5-19.7-10.5-40-12.9-60.3
		c-1.8-11.7-9.2-46.8,3.1-54.8c16-10.5,41.8,27.7,49.8,38.2c14.2,18.5,26.5,38.8,37.5,59.7c6.2,11.7,22.8,10.5,29.5,0
		c17.2-27.1,36.3-59.7,69.5-67.7C439.2,293.1,454.5,338,445.9,373.7L445.9,373.7z"/>
	<path class="st1" d="M80.4,181.7c-6.2-4.9-14.8,3.1-8.6,8.6C85.3,203.2,97,218,106.2,234c5.5,9.8,20.9,0,14.8-8.6
		C108.7,210,95.8,194.6,80.4,181.7L80.4,181.7z"/>
	<path class="st1" d="M246.5,184.2c-6.2-20.3-14.2-40.6-21.5-60.9c-3.1-8.6-17.2-5.5-14.2,3.7c6.2,20.3,11.7,41.2,19.7,61.5
		C234.2,198.3,249.6,195.2,246.5,184.2L246.5,184.2z"/>
	<path class="st1" d="M376.4,203.8v-96c0-8-12.3-8-12.9,0c-1.8,32-3.7,64-6.2,96C356.7,216.2,376.4,216.2,376.4,203.8L376.4,203.8z"
		/>
	<path class="st1" d="M475.5,241.4c9.8-33.8,19.7-65.8,35.1-97.8c3.7-8.6-8.6-16-13.5-7.4c-17.2,31.4-32.6,65.2-40.6,100.3
		C453.9,248.2,471.8,253.7,475.5,241.4L475.5,241.4z"/>
	<path class="st1" d="M607.2,257.4c-32.6,22.8-65.8,44.3-97.2,68.9c-10.5,8.6,3.1,26.5,14.2,18.5c32.6-22.8,62.8-48.6,94.2-73.2
		C626.2,265.4,615.1,251.2,607.2,257.4L607.2,257.4z"/>
</g>
</svg>
